<mxfile host="app.diagrams.net" agent="Mozilla/5.0 (Windows NT 10.0; Win64; x64) AppleWebKit/537.36 (KHTML, like Gecko) Chrome/141.0.0.0 Safari/537.36 Edg/141.0.0.0" version="28.2.7">
  <diagram name="Page-1" id="74e2e168-ea6b-b213-b513-2b3c1d86103e">
    <mxGraphModel dx="2026" dy="1129" grid="1" gridSize="10" guides="1" tooltips="1" connect="1" arrows="1" fold="1" page="1" pageScale="1" pageWidth="1100" pageHeight="850" background="none" math="0" shadow="0">
      <root>
        <mxCell id="0" />
        <mxCell id="1" parent="0" />
        <mxCell id="77e6c97f196da883-1" value="&lt;font style=&quot;font-size: 12px;&quot;&gt;Buienradar Extract Load Process&lt;/font&gt;" style="swimlane;html=1;childLayout=stackLayout;startSize=20;rounded=0;shadow=0;labelBackgroundColor=none;strokeWidth=1;fontFamily=Verdana;fontSize=8;align=center;" parent="1" vertex="1">
          <mxGeometry x="70" y="40" width="640" height="840" as="geometry" />
        </mxCell>
        <mxCell id="77e6c97f196da883-2" value="Initialisation" style="swimlane;html=1;startSize=20;" parent="77e6c97f196da883-1" vertex="1">
          <mxGeometry y="20" width="160" height="820" as="geometry" />
        </mxCell>
        <mxCell id="77e6c97f196da883-8" value="&lt;font style=&quot;font-size: 10px;&quot;&gt;Initial Start&lt;/font&gt;" style="rounded=1;whiteSpace=wrap;html=1;shadow=0;labelBackgroundColor=none;strokeWidth=1;fontFamily=Verdana;fontSize=8;align=center;" parent="77e6c97f196da883-2" vertex="1">
          <mxGeometry x="30" y="30" width="100" height="60" as="geometry" />
        </mxCell>
        <mxCell id="vZHSPUz6d228Oibp9Mrf-67" value="&lt;div&gt;&lt;font style=&quot;font-size: 10px;&quot;&gt;20 Min CRON Schedule&lt;/font&gt;&lt;/div&gt;" style="rounded=1;whiteSpace=wrap;html=1;shadow=0;labelBackgroundColor=none;strokeWidth=1;fontFamily=Verdana;fontSize=8;align=center;" vertex="1" parent="77e6c97f196da883-2">
          <mxGeometry x="30" y="305" width="100" height="60" as="geometry" />
        </mxCell>
        <mxCell id="77e6c97f196da883-26" style="edgeStyle=orthogonalEdgeStyle;rounded=0;html=1;labelBackgroundColor=none;startArrow=none;startFill=0;startSize=5;endArrow=classicThin;endFill=1;endSize=5;jettySize=auto;orthogonalLoop=1;strokeWidth=1;fontFamily=Verdana;fontSize=8;curved=0;" parent="77e6c97f196da883-1" source="77e6c97f196da883-8" target="77e6c97f196da883-11" edge="1">
          <mxGeometry relative="1" as="geometry">
            <Array as="points">
              <mxPoint x="170" y="80" />
              <mxPoint x="170" y="115" />
            </Array>
          </mxGeometry>
        </mxCell>
        <mxCell id="77e6c97f196da883-3" value="Extract" style="swimlane;html=1;startSize=20;" parent="77e6c97f196da883-1" vertex="1">
          <mxGeometry x="160" y="20" width="160" height="820" as="geometry" />
        </mxCell>
        <mxCell id="77e6c97f196da883-11" value="&lt;font style=&quot;font-size: 10px;&quot;&gt;Fetch Buienradar JSON&lt;/font&gt;" style="rounded=1;whiteSpace=wrap;html=1;shadow=0;labelBackgroundColor=none;strokeWidth=1;fontFamily=Verdana;fontSize=8;align=center;" parent="77e6c97f196da883-3" vertex="1">
          <mxGeometry x="30" y="65" width="100" height="60" as="geometry" />
        </mxCell>
        <mxCell id="vZHSPUz6d228Oibp9Mrf-38" value="Retry mechanism" style="edgeStyle=orthogonalEdgeStyle;rounded=0;orthogonalLoop=1;jettySize=auto;html=1;entryX=1;entryY=0.5;entryDx=0;entryDy=0;" edge="1" parent="77e6c97f196da883-3" source="vZHSPUz6d228Oibp9Mrf-2" target="77e6c97f196da883-11">
          <mxGeometry relative="1" as="geometry">
            <Array as="points">
              <mxPoint x="140" y="225" />
              <mxPoint x="140" y="95" />
            </Array>
          </mxGeometry>
        </mxCell>
        <mxCell id="vZHSPUz6d228Oibp9Mrf-2" value="&lt;font style=&quot;font-size: 10px;&quot;&gt;Successful ?&lt;/font&gt;" style="strokeWidth=2;html=1;shape=mxgraph.flowchart.decision;whiteSpace=wrap;" vertex="1" parent="77e6c97f196da883-3">
          <mxGeometry x="45" y="190" width="70" height="70" as="geometry" />
        </mxCell>
        <mxCell id="vZHSPUz6d228Oibp9Mrf-3" style="edgeStyle=orthogonalEdgeStyle;rounded=0;orthogonalLoop=1;jettySize=auto;html=1;entryX=0.5;entryY=0;entryDx=0;entryDy=0;entryPerimeter=0;" edge="1" parent="77e6c97f196da883-3" source="77e6c97f196da883-11" target="vZHSPUz6d228Oibp9Mrf-2">
          <mxGeometry relative="1" as="geometry" />
        </mxCell>
        <mxCell id="77e6c97f196da883-4" value="load" style="swimlane;html=1;startSize=20;" parent="77e6c97f196da883-1" vertex="1">
          <mxGeometry x="320" y="20" width="160" height="820" as="geometry" />
        </mxCell>
        <mxCell id="vZHSPUz6d228Oibp9Mrf-39" style="edgeStyle=orthogonalEdgeStyle;rounded=0;orthogonalLoop=1;jettySize=auto;html=1;" edge="1" parent="77e6c97f196da883-4" source="vZHSPUz6d228Oibp9Mrf-20" target="vZHSPUz6d228Oibp9Mrf-37">
          <mxGeometry relative="1" as="geometry" />
        </mxCell>
        <mxCell id="vZHSPUz6d228Oibp9Mrf-20" value="&lt;div&gt;&lt;font style=&quot;font-size: 10px;&quot;&gt;Connect to SQLite DB&lt;/font&gt;&lt;/div&gt;" style="rounded=1;whiteSpace=wrap;html=1;shadow=0;labelBackgroundColor=none;strokeWidth=1;fontFamily=Verdana;fontSize=8;align=center;" vertex="1" parent="77e6c97f196da883-4">
          <mxGeometry x="30" y="290" width="100" height="60" as="geometry" />
        </mxCell>
        <mxCell id="vZHSPUz6d228Oibp9Mrf-42" style="edgeStyle=orthogonalEdgeStyle;rounded=0;orthogonalLoop=1;jettySize=auto;html=1;" edge="1" parent="77e6c97f196da883-4" source="vZHSPUz6d228Oibp9Mrf-36" target="vZHSPUz6d228Oibp9Mrf-41">
          <mxGeometry relative="1" as="geometry" />
        </mxCell>
        <mxCell id="vZHSPUz6d228Oibp9Mrf-36" value="&lt;div&gt;&lt;font style=&quot;font-size: 10px;&quot;&gt;Insert Weather Station&lt;/font&gt;&lt;/div&gt;" style="rounded=1;whiteSpace=wrap;html=1;shadow=0;labelBackgroundColor=none;strokeWidth=1;fontFamily=Verdana;fontSize=8;align=center;" vertex="1" parent="77e6c97f196da883-4">
          <mxGeometry x="30" y="470" width="100" height="60" as="geometry" />
        </mxCell>
        <mxCell id="vZHSPUz6d228Oibp9Mrf-40" style="edgeStyle=orthogonalEdgeStyle;rounded=0;orthogonalLoop=1;jettySize=auto;html=1;" edge="1" parent="77e6c97f196da883-4" source="vZHSPUz6d228Oibp9Mrf-37" target="vZHSPUz6d228Oibp9Mrf-36">
          <mxGeometry relative="1" as="geometry" />
        </mxCell>
        <mxCell id="vZHSPUz6d228Oibp9Mrf-78" value="yes" style="edgeLabel;html=1;align=center;verticalAlign=middle;resizable=0;points=[];" vertex="1" connectable="0" parent="vZHSPUz6d228Oibp9Mrf-40">
          <mxGeometry x="0.019" y="1" relative="1" as="geometry">
            <mxPoint y="-1" as="offset" />
          </mxGeometry>
        </mxCell>
        <mxCell id="vZHSPUz6d228Oibp9Mrf-37" value="&lt;font style=&quot;font-size: 10px;&quot;&gt;Successful ?&lt;/font&gt;" style="strokeWidth=2;html=1;shape=mxgraph.flowchart.decision;whiteSpace=wrap;" vertex="1" parent="77e6c97f196da883-4">
          <mxGeometry x="47.5" y="377.5" width="65" height="65" as="geometry" />
        </mxCell>
        <mxCell id="vZHSPUz6d228Oibp9Mrf-65" style="edgeStyle=orthogonalEdgeStyle;rounded=0;orthogonalLoop=1;jettySize=auto;html=1;" edge="1" parent="77e6c97f196da883-4" source="vZHSPUz6d228Oibp9Mrf-41" target="vZHSPUz6d228Oibp9Mrf-64">
          <mxGeometry relative="1" as="geometry" />
        </mxCell>
        <mxCell id="vZHSPUz6d228Oibp9Mrf-79" value="Yes" style="edgeLabel;html=1;align=center;verticalAlign=middle;resizable=0;points=[];" vertex="1" connectable="0" parent="vZHSPUz6d228Oibp9Mrf-65">
          <mxGeometry x="0.2455" y="1" relative="1" as="geometry">
            <mxPoint y="-1" as="offset" />
          </mxGeometry>
        </mxCell>
        <mxCell id="vZHSPUz6d228Oibp9Mrf-75" style="edgeStyle=orthogonalEdgeStyle;rounded=0;orthogonalLoop=1;jettySize=auto;html=1;entryX=1;entryY=0.5;entryDx=0;entryDy=0;" edge="1" parent="77e6c97f196da883-4" source="vZHSPUz6d228Oibp9Mrf-41" target="vZHSPUz6d228Oibp9Mrf-36">
          <mxGeometry relative="1" as="geometry">
            <Array as="points">
              <mxPoint x="150" y="593" />
              <mxPoint x="150" y="500" />
            </Array>
          </mxGeometry>
        </mxCell>
        <mxCell id="vZHSPUz6d228Oibp9Mrf-76" value="Retry mechanism" style="edgeLabel;html=1;align=center;verticalAlign=middle;resizable=0;points=[];" vertex="1" connectable="0" parent="vZHSPUz6d228Oibp9Mrf-75">
          <mxGeometry x="0.5067" y="-3" relative="1" as="geometry">
            <mxPoint y="33" as="offset" />
          </mxGeometry>
        </mxCell>
        <mxCell id="vZHSPUz6d228Oibp9Mrf-41" value="&lt;font style=&quot;font-size: 10px;&quot;&gt;Successful ?&lt;/font&gt;" style="strokeWidth=2;html=1;shape=mxgraph.flowchart.decision;whiteSpace=wrap;" vertex="1" parent="77e6c97f196da883-4">
          <mxGeometry x="47.5" y="560" width="65" height="65" as="geometry" />
        </mxCell>
        <mxCell id="vZHSPUz6d228Oibp9Mrf-69" style="edgeStyle=orthogonalEdgeStyle;rounded=0;orthogonalLoop=1;jettySize=auto;html=1;" edge="1" parent="77e6c97f196da883-4" source="vZHSPUz6d228Oibp9Mrf-64" target="vZHSPUz6d228Oibp9Mrf-66">
          <mxGeometry relative="1" as="geometry" />
        </mxCell>
        <mxCell id="vZHSPUz6d228Oibp9Mrf-64" value="&lt;div&gt;&lt;font style=&quot;font-size: 10px;&quot;&gt;Insert Measurements&lt;/font&gt;&lt;/div&gt;" style="rounded=1;whiteSpace=wrap;html=1;shadow=0;labelBackgroundColor=none;strokeWidth=1;fontFamily=Verdana;fontSize=8;align=center;" vertex="1" parent="77e6c97f196da883-4">
          <mxGeometry x="30" y="660" width="100" height="60" as="geometry" />
        </mxCell>
        <mxCell id="vZHSPUz6d228Oibp9Mrf-66" value="&lt;font style=&quot;font-size: 10px;&quot;&gt;Successful ?&lt;/font&gt;" style="strokeWidth=2;html=1;shape=mxgraph.flowchart.decision;whiteSpace=wrap;" vertex="1" parent="77e6c97f196da883-4">
          <mxGeometry x="47.5" y="740" width="65" height="65" as="geometry" />
        </mxCell>
        <mxCell id="vZHSPUz6d228Oibp9Mrf-74" value="Retry mechanism" style="edgeStyle=orthogonalEdgeStyle;rounded=0;orthogonalLoop=1;jettySize=auto;html=1;entryX=1;entryY=0.5;entryDx=0;entryDy=0;" edge="1" parent="77e6c97f196da883-4" target="vZHSPUz6d228Oibp9Mrf-20">
          <mxGeometry relative="1" as="geometry">
            <mxPoint x="110" y="410" as="sourcePoint" />
            <mxPoint x="135" y="280" as="targetPoint" />
            <Array as="points">
              <mxPoint x="145" y="410" />
              <mxPoint x="145" y="320" />
            </Array>
          </mxGeometry>
        </mxCell>
        <mxCell id="vZHSPUz6d228Oibp9Mrf-81" style="edgeStyle=orthogonalEdgeStyle;rounded=0;orthogonalLoop=1;jettySize=auto;html=1;entryX=0.991;entryY=0.41;entryDx=0;entryDy=0;entryPerimeter=0;" edge="1" parent="77e6c97f196da883-4" source="vZHSPUz6d228Oibp9Mrf-66" target="vZHSPUz6d228Oibp9Mrf-64">
          <mxGeometry relative="1" as="geometry">
            <Array as="points">
              <mxPoint x="150" y="773" />
              <mxPoint x="150" y="685" />
            </Array>
          </mxGeometry>
        </mxCell>
        <mxCell id="vZHSPUz6d228Oibp9Mrf-5" value="Error" style="swimlane;html=1;startSize=20;" vertex="1" parent="77e6c97f196da883-1">
          <mxGeometry x="480" y="20" width="160" height="820" as="geometry" />
        </mxCell>
        <mxCell id="vZHSPUz6d228Oibp9Mrf-6" value="Alarm" style="rounded=1;whiteSpace=wrap;html=1;shadow=0;labelBackgroundColor=none;strokeWidth=1;fontFamily=Verdana;fontSize=8;align=center;" vertex="1" parent="vZHSPUz6d228Oibp9Mrf-5">
          <mxGeometry x="30" y="195" width="100" height="60" as="geometry" />
        </mxCell>
        <mxCell id="vZHSPUz6d228Oibp9Mrf-7" value="No (Retry Limit reached, ...)&amp;nbsp;" style="edgeStyle=orthogonalEdgeStyle;rounded=0;orthogonalLoop=1;jettySize=auto;html=1;entryX=0;entryY=0.5;entryDx=0;entryDy=0;" edge="1" parent="77e6c97f196da883-1" source="vZHSPUz6d228Oibp9Mrf-2" target="vZHSPUz6d228Oibp9Mrf-6">
          <mxGeometry relative="1" as="geometry" />
        </mxCell>
        <mxCell id="vZHSPUz6d228Oibp9Mrf-21" style="edgeStyle=orthogonalEdgeStyle;rounded=0;orthogonalLoop=1;jettySize=auto;html=1;entryX=0;entryY=0.5;entryDx=0;entryDy=0;" edge="1" parent="77e6c97f196da883-1" source="vZHSPUz6d228Oibp9Mrf-2" target="vZHSPUz6d228Oibp9Mrf-20">
          <mxGeometry relative="1" as="geometry">
            <Array as="points">
              <mxPoint x="240" y="340" />
            </Array>
          </mxGeometry>
        </mxCell>
        <mxCell id="vZHSPUz6d228Oibp9Mrf-77" value="Yes" style="edgeLabel;html=1;align=center;verticalAlign=middle;resizable=0;points=[];" vertex="1" connectable="0" parent="vZHSPUz6d228Oibp9Mrf-21">
          <mxGeometry x="-0.7265" y="2" relative="1" as="geometry">
            <mxPoint y="-1" as="offset" />
          </mxGeometry>
        </mxCell>
        <mxCell id="vZHSPUz6d228Oibp9Mrf-68" style="edgeStyle=orthogonalEdgeStyle;rounded=0;orthogonalLoop=1;jettySize=auto;html=1;entryX=0.5;entryY=1;entryDx=0;entryDy=0;" edge="1" parent="77e6c97f196da883-1" source="vZHSPUz6d228Oibp9Mrf-66" target="vZHSPUz6d228Oibp9Mrf-67">
          <mxGeometry relative="1" as="geometry" />
        </mxCell>
        <mxCell id="vZHSPUz6d228Oibp9Mrf-80" value="Yes" style="edgeLabel;html=1;align=center;verticalAlign=middle;resizable=0;points=[];" vertex="1" connectable="0" parent="vZHSPUz6d228Oibp9Mrf-68">
          <mxGeometry x="-0.9266" y="1" relative="1" as="geometry">
            <mxPoint as="offset" />
          </mxGeometry>
        </mxCell>
        <mxCell id="vZHSPUz6d228Oibp9Mrf-70" style="edgeStyle=orthogonalEdgeStyle;rounded=0;orthogonalLoop=1;jettySize=auto;html=1;entryX=0.5;entryY=1;entryDx=0;entryDy=0;" edge="1" parent="77e6c97f196da883-1" source="vZHSPUz6d228Oibp9Mrf-66" target="vZHSPUz6d228Oibp9Mrf-6">
          <mxGeometry relative="1" as="geometry" />
        </mxCell>
        <mxCell id="vZHSPUz6d228Oibp9Mrf-71" style="edgeStyle=orthogonalEdgeStyle;rounded=0;orthogonalLoop=1;jettySize=auto;html=1;entryX=0.5;entryY=1;entryDx=0;entryDy=0;" edge="1" parent="77e6c97f196da883-1" source="vZHSPUz6d228Oibp9Mrf-41" target="vZHSPUz6d228Oibp9Mrf-6">
          <mxGeometry relative="1" as="geometry" />
        </mxCell>
        <mxCell id="vZHSPUz6d228Oibp9Mrf-72" value="&lt;br&gt;&lt;span style=&quot;color: rgb(0, 0, 0); font-family: Helvetica; font-size: 11px; font-style: normal; font-variant-ligatures: normal; font-variant-caps: normal; font-weight: 400; letter-spacing: normal; orphans: 2; text-align: center; text-indent: 0px; text-transform: none; widows: 2; word-spacing: 0px; -webkit-text-stroke-width: 0px; white-space: nowrap; background-color: rgb(255, 255, 255); text-decoration-thickness: initial; text-decoration-style: initial; text-decoration-color: initial; float: none; display: inline !important;&quot;&gt;No (Retry Limit reached, ...)&amp;nbsp;&lt;/span&gt;" style="edgeStyle=orthogonalEdgeStyle;rounded=0;orthogonalLoop=1;jettySize=auto;html=1;" edge="1" parent="77e6c97f196da883-1" source="vZHSPUz6d228Oibp9Mrf-37" target="vZHSPUz6d228Oibp9Mrf-6">
          <mxGeometry x="0.5398" relative="1" as="geometry">
            <mxPoint as="offset" />
          </mxGeometry>
        </mxCell>
        <mxCell id="vZHSPUz6d228Oibp9Mrf-73" style="edgeStyle=orthogonalEdgeStyle;rounded=0;orthogonalLoop=1;jettySize=auto;html=1;" edge="1" parent="77e6c97f196da883-1" source="vZHSPUz6d228Oibp9Mrf-67" target="77e6c97f196da883-11">
          <mxGeometry relative="1" as="geometry">
            <Array as="points">
              <mxPoint x="170" y="355" />
              <mxPoint x="170" y="115" />
            </Array>
          </mxGeometry>
        </mxCell>
        <mxCell id="vZHSPUz6d228Oibp9Mrf-82" value="Retry mechanism" style="edgeLabel;html=1;align=center;verticalAlign=middle;resizable=0;points=[];" vertex="1" connectable="0" parent="1">
          <mxGeometry x="570" y="630" as="geometry">
            <mxPoint x="-29" y="158" as="offset" />
          </mxGeometry>
        </mxCell>
      </root>
    </mxGraphModel>
  </diagram>
</mxfile>
